<svg xmlns="http://www.w3.org/2000/svg" xmlns:xlink="http://www.w3.org/1999/xlink" version="1.1" width="750pt" height="750pt" viewBox="0 0 750 750">
<defs>
<clipPath id="clip_0">
<path transform="matrix(1,0,0,-1,0,750)" d="M0 750H750V0H0Z"/>
</clipPath>
</defs>
<g id="layer_1" data-name="Layer 1">
<g clip-path="url(#clip_0)">
<path transform="matrix(1,0,0,-1,294.8872,339.8647)" d="M0 0C5.487 5.566 13.415 8.337 21.154 8.219 26.798 8.29 32.647 7.054 37.308 3.74 41.189 1 43.968-3.653 43.551-8.51 43.41-12.848 40.536-16.706 36.844-18.784 32.758-21.067 28.034-21.98 23.397-22.122 12.824-22.248 2.11-21.949-8.18-19.296-8.022-12.132-5.117-5.046 0 0M-131.3 7.439C-124.577 9.093-117.105 8.439-111.043 4.944-105.643 1.795-102.155-3.873-100.534-9.801-98.573-16.398-98.558-23.366-98.88-30.184-99.471-37.568-101.533-45.244-106.698-50.787-112.193-56.557-120.703-58.478-128.403-57.462-134.606-56.793-140.708-54.03-144.77-49.196-150.131-43.055-151.737-34.624-151.879-26.704-151.816-18.493-150.352-9.959-145.738-3.015-142.424 2.086-137.22 5.944-131.3 7.439M290.366 24.57C278.604 16.194 271.496 2.377 269.409-11.722 267.842-20.815 268.393-30.058 268.299-39.229 268.338-50.015 268.228-60.8 268.346-71.585 268.85-79.466 270.046-88.512 276.581-93.826 284.69-100.257 295.617-100.148 305.442-100.061 304.828-93.983 304.498-87.882 304.339-81.781 304.285-62.091 304.339-42.402 304.308-22.72 304.221-15.824 304.757-8.392 308.843-2.566 312.732 2.858 319.423 5.385 325.879 5.896 332.453 6.471 339.672 7.92 344.238 13.092 349.372 19.264 348.087 28.082 345.805 35.159 339.38 35.112 332.957 35.207 326.541 35.12 313.944 34.411 300.79 32.191 290.366 24.57M204.208 27.231C197.532 21.264 195.76 11.825 195.667 3.267 195.8-16.163 195.335-35.592 195.477-55.03 195.634-61.871 194.895-68.838 196.547-75.561 198.311-83.725 202.98-91.377 209.995-96.038 218.276-101.588 228.991-102.667 238.533-100.257 244.381-98.778 250.035-94.999 252.27-89.212 254.373-83.756 253.459-77.782 252.687-72.161 247.901-73.475 242.453-74.475 237.839-72.066 233.455-69.72 231.518-64.493 231.495-59.746 231.502-36.379 231.495-13.021 231.495 10.345 231.447 18.769 231.573 27.216 232.644 35.577 222.724 35.458 211.939 34.033 204.208 27.231M-22.154 22.807C-32.522 13.627-39.229 .842-42.245-12.581-45.142-25.767-45.496-39.591-42.709-52.833-39.82-66.303-32.955-79.199-22.146-87.953-9.951-98.061 6.361-102.077 21.972-101.36 35.498-100.581 48.684-96.243 60.454-89.614 65.02-86.906 69.563-83.859 72.798-79.577 70.578-72.845 66.807-65.162 59.328-63.264 49.802-61.541 41.764-68.098 32.876-70.09 21.933-72.791 9.242-72.066 .055-64.957-6.558-59.864-9.203-51.298-9.306-43.229 1.205-45.362 11.966-45.811 22.665-45.74 32.207-45.519 41.867-44.622 50.952-41.52 58.541-38.993 65.681-34.435 70.184-27.696 75.356-19.76 76.412-9.786 75.113-.575 73.695 10.101 67.885 20.091 59.289 26.586 47.637 35.647 32.412 38.71 17.918 38.45 3.298 38.025-11.242 32.64-22.154 22.807M-143.479 36.135C-157.083 32.782-169.396 24.287-177 12.47-185.684-.858-188.581-17.296-187.274-32.986-186.085-46.425-181.417-59.785-172.765-70.255-164.42-80.552-151.942-87.338-138.771-88.78-125.049-90.409-110.264-87.756-99.148-79.175-99.597-90.527-97.542-102.581-102.494-113.248-105.084-119.309-110.666-123.836-117.074-125.3-128.615-128.072-140.66-124.639-150.785-118.995-155.784-116.074-161.838-113.697-167.601-115.814-174.851-118.254-178.788-125.6-180.779-132.52-175.953-138.818-169.27-143.431-162.294-147.077-148.596-154.09-132.937-157.523-117.562-156.067-104.454-155.051-91.11-150.626-81.576-141.258-71.46-131.575-66.421-117.783-64.485-104.17-62.926-94.424-63.406-84.537-63.335-74.711-63.335-59.469-63.328-44.236-63.335-28.995-63.769-14.116-66.5 1.22-74.522 14.005-81.033 24.468-91.52 32.293-103.375 35.64-116.373 39.324-130.378 39.371-143.479 36.135M104.186 76.813C97.061 70.507 95.4 60.304 95.692 51.251 95.33 37.355 95.558 23.453 95.495 9.549 95.644-5.928 95.204-21.398 95.298-36.875 95.165-48.298 96.353-59.926 100.557-70.641 103.99-79.505 109.697-87.708 117.625-93.102 127.009-99.722 138.841-102.061 150.163-101.557 158.649-101.092 167.624-98.045 172.875-91 177.551-84.985 177.512-76.726 175.733-69.657 167.112-71.5 157.767-73.144 149.233-70.137 140.628-66.76 133.992-58.604 132.677-49.424 130.52-38.796 131.237-27.924 131.111-17.162 131.489-8.321 131.245 .527 131.323 9.369 135.755 9.408 140.196 9.29 144.635 9.416 151.414 9.691 158.413 12.037 163.066 17.178 168.537 22.792 170.465 30.853 170.529 38.489 157.46 38.513 144.392 38.489 131.323 38.497 131.323 54.054 130.378 69.688 132.276 85.182 122.49 84.946 111.775 83.615 104.186 76.813M210.34 85.426C207.514 84.717 204.932 83.253 202.665 81.45 194.415 74.758 192.289 61.367 199.138 52.959 205.979 43.977 221.055 44.362 228.015 53.006 234.872 60.233 235.525 72.728 228.708 80.175 224.023 84.875 216.851 87.386 210.34 85.426M51.534 338.767C121.435 344.152 192.816 329.643 254.79 296.774 307.442 269.079 353.292 228.621 387.388 179.874 418.13 136.125 439.3 85.693 448.905 33.089 463.446-45.637 452.306-129.024 416.626-200.776 390.592-253.845 351.662-300.474 304.3-335.815 253.451-373.902 192.738-398.693 129.725-406.896 77.144-413.785 23.075-409.707-27.743-394.426-81.875-378.264-132.174-349.513-173.717-311.236-218.946-269.732-253.782-216.961-273.991-158.988-304.6-71.853-301.506 26.633-265.134 111.547-243.39 162.837-209.924 209.05-168.183 245.925-127.544 281.895-79.002 308.922-26.964 324.352-1.409 331.949 24.956 336.775 51.534 338.767" fill="#5d3ebc"/>
<path transform="matrix(1,0,0,-1,585.2529,315.2944)" d="M0 0C10.424 7.621 23.578 9.841 36.175 10.549 42.591 10.636 49.015 10.542 55.439 10.589 57.722 3.511 59.006-5.306 53.872-11.478 49.307-16.65 42.087-18.099 35.514-18.674 29.058-19.186 22.366-21.712 18.478-27.137 14.392-32.962 13.855-40.394 13.942-47.291 13.974-66.972 13.919-86.662 13.974-106.351 14.132-112.453 14.462-118.553 15.076-124.631 5.251-124.718-5.676-124.828-13.785-118.396-20.319-113.083-21.516-104.037-22.02-96.156-22.138-85.371-22.027-74.585-22.066-63.799-21.973-54.628-22.523-45.385-20.957-36.292-18.87-22.193-11.762-8.376 0 0M-86.158 2.661C-78.427 9.463-67.642 10.888-57.722 11.006-58.793 2.646-58.919-5.802-58.871-14.226-58.871-37.592-58.863-60.95-58.871-84.316-58.848-89.063-56.911-94.291-52.526-96.636-47.913-99.045-42.465-98.045-37.679-96.731-36.906-102.352-35.993-108.327-38.096-113.783-40.331-119.569-45.984-123.348-51.833-124.828-61.375-127.237-72.09-126.159-80.371-120.608-87.386-115.948-92.055-108.295-93.818-100.131-95.471-93.409-94.731-86.441-94.889-79.6-95.03-60.163-94.565-40.733-94.699-21.303-94.605-12.746-92.834-3.306-86.158 2.661M-290.366-24.57C-295.483-29.617-298.388-36.702-298.545-43.866-288.256-46.519-277.542-46.818-266.968-46.692-262.332-46.551-257.608-45.637-253.522-43.354-249.83-41.276-246.956-37.418-246.814-33.081-246.397-28.223-249.176-23.57-253.058-20.831-257.718-17.517-263.567-16.28-269.212-16.351-276.951-16.233-284.878-19.004-290.366-24.57M-312.52-1.763C-301.608 8.07-287.067 13.455-272.448 13.879-257.954 14.14-242.729 11.077-231.077 2.016-222.48-4.479-216.67-14.47-215.253-25.145-213.954-34.356-215.009-44.331-220.182-52.266-224.685-59.005-231.825-63.563-239.414-66.09-248.499-69.192-258.159-70.089-267.701-70.31-278.399-70.381-289.161-69.932-299.671-67.799-299.569-75.869-296.924-84.434-290.311-89.527-281.124-96.636-268.433-97.361-257.49-94.661-248.602-92.668-240.563-86.111-231.038-87.834-223.559-89.732-219.788-97.416-217.568-104.147-220.803-108.429-225.346-111.476-229.912-114.184-241.682-120.813-254.868-125.151-268.394-125.93-284.005-126.647-300.317-122.631-312.512-112.523-323.321-103.769-330.186-90.874-333.075-77.404-335.862-64.162-335.507-50.337-332.61-37.151-329.595-23.728-322.888-10.943-312.52-1.763M-421.666-17.131C-427.585-18.626-432.79-22.484-436.104-27.585-440.717-34.529-442.182-43.063-442.245-51.274-442.103-59.194-440.497-67.625-435.136-73.766-431.073-78.6-424.972-81.364-418.769-82.033-411.069-83.048-402.559-81.127-397.063-75.357-391.899-69.814-389.836-62.138-389.246-54.754-388.923-47.936-388.939-40.969-390.899-34.372-392.521-28.443-396.009-22.775-401.409-19.626-407.471-16.131-414.942-15.478-421.666-17.131M-433.844 11.565C-420.744 14.801-406.739 14.753-393.741 11.069-381.885 7.723-371.399-.102-364.888-10.565-356.866-23.35-354.134-38.686-353.701-53.565-353.693-68.806-353.701-84.04-353.701-99.282-353.772-109.107-353.292-118.995-354.851-128.741-356.787-142.353-361.826-156.145-371.942-165.829-381.476-175.197-394.82-179.622-407.928-180.637-423.303-182.093-438.961-178.661-452.66-171.647-459.635-168.001-466.319-163.388-471.145-157.09-469.153-150.17-465.217-142.825-457.966-140.384-452.204-138.267-446.149-140.644-441.15-143.565-431.026-149.209-418.981-152.642-407.439-149.871-401.031-148.407-395.45-143.879-392.859-137.818-387.908-127.151-389.962-115.097-389.514-103.746-400.63-112.327-415.415-114.979-429.137-113.35-442.308-111.909-454.786-105.123-463.13-94.826-471.783-84.355-476.451-70.996-477.64-57.557-478.947-41.866-476.049-25.428-467.366-12.1-459.761-.283-447.448 8.211-433.844 11.565M-186.18 52.243C-178.591 59.045-167.876 60.375-158.09 60.611-159.987 45.118-159.043 29.483-159.043 13.927-145.974 13.919-132.905 13.943-119.837 13.919-119.9 6.283-121.829-1.779-127.3-7.392-131.953-12.533-138.952-14.879-145.73-15.155-150.17-15.281-154.61-15.163-159.043-15.202-159.121-24.043-158.877-32.892-159.255-41.732-159.129-52.495-159.846-63.367-157.688-73.995-156.374-83.174-149.737-91.331-141.133-94.708-132.599-97.714-123.254-96.07-114.633-94.227-112.854-101.296-112.814-109.555-117.491-115.57-122.742-122.616-131.717-125.663-140.203-126.127-151.524-126.631-163.356-124.292-172.741-117.672-180.669-112.279-186.376-104.076-189.809-95.211-194.013-84.497-195.201-72.869-195.067-61.446-195.162-45.968-194.722-30.499-194.871-15.021-194.808-1.118-195.036 12.785-194.674 26.681-194.966 35.734-193.305 45.937-186.18 52.243M-80.025 60.855C-73.515 62.816-66.343 60.305-61.658 55.604-54.841 48.157-55.494 35.663-62.351 28.436-69.311 19.792-84.387 19.406-91.228 28.389-98.077 36.797-95.951 50.188-87.701 56.88-85.434 58.683-82.852 60.147-80.025 60.855" fill="#ffd10d"/>
</g>
</g>
</svg>
